<mxfile host="65bd71144e">
    <diagram id="hs6UDYdS59wV-6m-uYcL" name="Page-1">
        <mxGraphModel dx="2383" dy="1156" grid="1" gridSize="10" guides="1" tooltips="1" connect="1" arrows="1" fold="1" page="1" pageScale="1" pageWidth="1169" pageHeight="827" math="0" shadow="0">
            <root>
                <mxCell id="0"/>
                <mxCell id="1" parent="0"/>
                <mxCell id="9" value="" style="edgeStyle=none;html=1;entryX=0;entryY=0.5;entryDx=0;entryDy=0;jumpStyle=none;targetPerimeterSpacing=0;" edge="1" parent="1" source="2" target="7">
                    <mxGeometry relative="1" as="geometry"/>
                </mxCell>
                <mxCell id="43" value="" style="jumpStyle=arc;html=1;targetPerimeterSpacing=0;entryX=0.5;entryY=0;entryDx=0;entryDy=0;exitX=0.5;exitY=1;exitDx=0;exitDy=0;" edge="1" parent="1" source="2" target="41">
                    <mxGeometry relative="1" as="geometry"/>
                </mxCell>
                <mxCell id="2" value="&lt;b&gt;Initialize configs &lt;br&gt;and flags&lt;br&gt;&lt;/b&gt;&lt;i&gt;ConfigsInit()&lt;br&gt;FlagsInit()&lt;/i&gt;" style="ellipse;whiteSpace=wrap;html=1;" vertex="1" parent="1">
                    <mxGeometry x="180" y="120" width="170" height="100" as="geometry"/>
                </mxCell>
                <mxCell id="51" value="" style="edgeStyle=none;jumpStyle=arc;html=1;targetPerimeterSpacing=0;" edge="1" parent="1" source="10" target="49">
                    <mxGeometry relative="1" as="geometry"/>
                </mxCell>
                <mxCell id="10" value="&lt;b style=&quot;border-color: var(--border-color);&quot;&gt;Initialize ADC, &lt;br&gt;self-test and loop &lt;br&gt;until BRef detected&lt;br style=&quot;border-color: var(--border-color);&quot;&gt;&lt;/b&gt;&lt;span style=&quot;border-color: var(--border-color); background-color: initial;&quot;&gt;&lt;i style=&quot;border-color: var(--border-color);&quot;&gt;ADCInit()&lt;br style=&quot;border-color: var(--border-color);&quot;&gt;&lt;/i&gt;&lt;/span&gt;" style="ellipse;whiteSpace=wrap;html=1;" vertex="1" parent="1">
                    <mxGeometry x="180" y="455" width="170" height="100" as="geometry"/>
                </mxCell>
                <mxCell id="13" value="&lt;span style=&quot;color: rgb(0, 0, 0); font-family: Helvetica; font-size: 12px; font-style: normal; font-variant-ligatures: normal; font-variant-caps: normal; font-weight: 400; letter-spacing: normal; orphans: 2; text-indent: 0px; text-transform: none; widows: 2; word-spacing: 0px; -webkit-text-stroke-width: 0px; background-color: rgb(251, 251, 251); text-decoration-thickness: initial; text-decoration-style: initial; text-decoration-color: initial; float: none; display: inline !important;&quot;&gt;&lt;sup&gt;1&lt;/sup&gt; this affects how peripherals are initialized&lt;/span&gt;" style="text;whiteSpace=wrap;html=1;align=center;" vertex="1" parent="1">
                    <mxGeometry x="340" y="230" width="170" height="40" as="geometry"/>
                </mxCell>
                <mxCell id="57" value="" style="edgeStyle=none;jumpStyle=arc;html=1;targetPerimeterSpacing=0;" edge="1" parent="1" source="18" target="52">
                    <mxGeometry relative="1" as="geometry"/>
                </mxCell>
                <mxCell id="18" value="&lt;b&gt;Initialize PID&lt;br&gt;&lt;/b&gt;&lt;i&gt;PIDInit() &lt;/i&gt;&lt;sup&gt;3&lt;/sup&gt;" style="ellipse;whiteSpace=wrap;html=1;dashed=1;" vertex="1" parent="1">
                    <mxGeometry x="380" y="585" width="170" height="100" as="geometry"/>
                </mxCell>
                <mxCell id="28" value="" style="group" vertex="1" connectable="0" parent="1">
                    <mxGeometry x="430" y="130" width="390" height="90" as="geometry"/>
                </mxCell>
                <mxCell id="7" value="Global configs / flags" style="rounded=0;whiteSpace=wrap;html=1;dashed=1;verticalAlign=top;" vertex="1" parent="28">
                    <mxGeometry y="-10" width="390" height="100" as="geometry"/>
                </mxCell>
                <mxCell id="3" value="motorConfigs" style="rounded=0;whiteSpace=wrap;html=1;" vertex="1" parent="28">
                    <mxGeometry x="20" y="20" width="110" height="50" as="geometry"/>
                </mxCell>
                <mxCell id="4" value="motorFlags&lt;br&gt;(GPIOR0)" style="rounded=0;whiteSpace=wrap;html=1;" vertex="1" parent="28">
                    <mxGeometry x="140" y="20" width="110" height="50" as="geometry"/>
                </mxCell>
                <mxCell id="5" value="faultFlags&lt;br&gt;(GPIOR1)" style="rounded=0;whiteSpace=wrap;html=1;" vertex="1" parent="28">
                    <mxGeometry x="260" y="20" width="110" height="50" as="geometry"/>
                </mxCell>
                <mxCell id="84" value="" style="edgeStyle=none;jumpStyle=arc;html=1;targetPerimeterSpacing=0;" edge="1" parent="1" source="29" target="83">
                    <mxGeometry relative="1" as="geometry"/>
                </mxCell>
                <mxCell id="29" value="&lt;b&gt;Initialize interupts &lt;/b&gt;&lt;br&gt;&lt;b&gt;and take over&lt;/b&gt;&lt;br&gt;PinChangeIntInit(),&lt;br&gt;&amp;lt;code&amp;gt;, sei()" style="ellipse;whiteSpace=wrap;html=1;" vertex="1" parent="1">
                    <mxGeometry x="880" y="455" width="170" height="100" as="geometry"/>
                </mxCell>
                <mxCell id="78" value="" style="edgeStyle=none;jumpStyle=arc;html=1;targetPerimeterSpacing=0;" edge="1" parent="1" source="39" target="29">
                    <mxGeometry relative="1" as="geometry"/>
                </mxCell>
                <mxCell id="39" value="&lt;b&gt;Initialize Serial and SCPI&lt;/b&gt;&lt;br&gt;&lt;i&gt;Serial.begin(), SCPI_Init()&lt;/i&gt;" style="ellipse;whiteSpace=wrap;html=1;" vertex="1" parent="1">
                    <mxGeometry x="880" y="585" width="170" height="100" as="geometry"/>
                </mxCell>
                <mxCell id="47" style="edgeStyle=none;jumpStyle=arc;html=1;entryX=0.5;entryY=0;entryDx=0;entryDy=0;targetPerimeterSpacing=0;" edge="1" parent="1" source="40" target="10">
                    <mxGeometry relative="1" as="geometry"/>
                </mxCell>
                <mxCell id="40" value="&lt;b&gt;Initialize ports&lt;br&gt;&lt;/b&gt;&lt;span style=&quot;background-color: initial;&quot;&gt;&lt;i&gt;PortsInit()&lt;/i&gt;&lt;br&gt;&lt;u style=&quot;&quot;&gt;Switches as inputs&lt;/u&gt;&lt;br&gt;&lt;/span&gt;" style="ellipse;whiteSpace=wrap;html=1;" vertex="1" parent="1">
                    <mxGeometry x="80" y="335" width="170" height="100" as="geometry"/>
                </mxCell>
                <mxCell id="45" style="edgeStyle=none;jumpStyle=arc;html=1;exitX=1;exitY=1;exitDx=0;exitDy=0;entryX=0.5;entryY=0;entryDx=0;entryDy=0;targetPerimeterSpacing=0;" edge="1" parent="1" source="41" target="44">
                    <mxGeometry relative="1" as="geometry"/>
                </mxCell>
                <mxCell id="58" value="Enabled" style="edgeLabel;html=1;align=center;verticalAlign=middle;resizable=0;points=[];" vertex="1" connectable="0" parent="45">
                    <mxGeometry x="-0.2809" y="-1" relative="1" as="geometry">
                        <mxPoint as="offset"/>
                    </mxGeometry>
                </mxCell>
                <mxCell id="46" style="edgeStyle=none;jumpStyle=arc;html=1;exitX=0;exitY=1;exitDx=0;exitDy=0;entryX=0.5;entryY=0;entryDx=0;entryDy=0;targetPerimeterSpacing=0;" edge="1" parent="1" source="41" target="40">
                    <mxGeometry relative="1" as="geometry"/>
                </mxCell>
                <mxCell id="60" value="Disabled" style="edgeLabel;html=1;align=center;verticalAlign=middle;resizable=0;points=[];" vertex="1" connectable="0" parent="46">
                    <mxGeometry x="-0.2501" relative="1" as="geometry">
                        <mxPoint as="offset"/>
                    </mxGeometry>
                </mxCell>
                <mxCell id="53" style="edgeStyle=none;jumpStyle=arc;html=1;targetPerimeterSpacing=0;entryX=0;entryY=0.5;entryDx=0;entryDy=0;dashed=1;" edge="1" parent="1" source="41" target="55">
                    <mxGeometry relative="1" as="geometry">
                        <mxPoint x="360" y="235" as="targetPoint"/>
                    </mxGeometry>
                </mxCell>
                <mxCell id="63" value="update" style="edgeLabel;html=1;align=center;verticalAlign=middle;resizable=0;points=[];" vertex="1" connectable="0" parent="53">
                    <mxGeometry x="0.3015" y="-1" relative="1" as="geometry">
                        <mxPoint x="-14" y="-1" as="offset"/>
                    </mxGeometry>
                </mxCell>
                <mxCell id="41" value="&lt;b style=&quot;border-color: var(--border-color);&quot;&gt;Check if remote enable&lt;/b&gt;&lt;i style=&quot;border-color: var(--border-color);&quot;&gt;&lt;br style=&quot;border-color: var(--border-color);&quot;&gt;RemoteUpdate()&lt;/i&gt;&amp;nbsp;&lt;sup&gt;1&lt;/sup&gt;" style="rhombus;whiteSpace=wrap;html=1;" vertex="1" parent="1">
                    <mxGeometry x="160" y="245" width="210" height="80" as="geometry"/>
                </mxCell>
                <mxCell id="48" style="edgeStyle=none;jumpStyle=arc;html=1;entryX=0.5;entryY=0;entryDx=0;entryDy=0;targetPerimeterSpacing=0;" edge="1" parent="1" source="44" target="10">
                    <mxGeometry relative="1" as="geometry"/>
                </mxCell>
                <mxCell id="44" value="&lt;b&gt;Initialize ports&lt;br&gt;&lt;/b&gt;&lt;span style=&quot;background-color: initial;&quot;&gt;&lt;i&gt;PortsInit()&lt;/i&gt;&lt;br&gt;&lt;u style=&quot;&quot;&gt;Switches as outputs&lt;/u&gt;&amp;nbsp;&lt;sup&gt;2&lt;/sup&gt;&lt;br&gt;&lt;/span&gt;" style="ellipse;whiteSpace=wrap;html=1;" vertex="1" parent="1">
                    <mxGeometry x="270" y="335" width="170" height="100" as="geometry"/>
                </mxCell>
                <mxCell id="56" value="" style="edgeStyle=none;jumpStyle=arc;html=1;targetPerimeterSpacing=0;" edge="1" parent="1" source="49" target="18">
                    <mxGeometry relative="1" as="geometry"/>
                </mxCell>
                <mxCell id="49" value="&lt;b style=&quot;border-color: var(--border-color);&quot;&gt;Initialize remaining peripherals&lt;br style=&quot;border-color: var(--border-color);&quot;&gt;&lt;/b&gt;&lt;i style=&quot;border-color: var(--border-color);&quot;&gt;PLLInit(), T&lt;/i&gt;&lt;i style=&quot;border-color: var(--border-color); background-color: initial;&quot;&gt;imersInit()&lt;/i&gt;&lt;i&gt;&lt;span style=&quot;background-color: initial;&quot;&gt;&lt;br&gt;&lt;/span&gt;&lt;/i&gt;" style="ellipse;whiteSpace=wrap;html=1;" vertex="1" parent="1">
                    <mxGeometry x="180" y="585" width="170" height="100" as="geometry"/>
                </mxCell>
                <mxCell id="61" value="" style="edgeStyle=none;jumpStyle=arc;html=1;targetPerimeterSpacing=0;" edge="1" parent="1" source="52" target="39">
                    <mxGeometry relative="1" as="geometry"/>
                </mxCell>
                <mxCell id="62" value="Enabled" style="edgeLabel;html=1;align=center;verticalAlign=middle;resizable=0;points=[];" vertex="1" connectable="0" parent="61">
                    <mxGeometry x="-0.5371" y="1" relative="1" as="geometry">
                        <mxPoint x="12" y="1" as="offset"/>
                    </mxGeometry>
                </mxCell>
                <mxCell id="65" value="" style="edgeStyle=none;jumpStyle=arc;html=1;targetPerimeterSpacing=0;" edge="1" parent="1" source="52" target="64">
                    <mxGeometry relative="1" as="geometry"/>
                </mxCell>
                <mxCell id="75" value="Disabled" style="edgeLabel;html=1;align=center;verticalAlign=middle;resizable=0;points=[];" vertex="1" connectable="0" parent="65">
                    <mxGeometry x="-0.3833" relative="1" as="geometry">
                        <mxPoint y="-3" as="offset"/>
                    </mxGeometry>
                </mxCell>
                <mxCell id="52" value="&lt;b style=&quot;border-color: var(--border-color);&quot;&gt;Check &lt;br&gt;motorFlags.r&lt;/b&gt;&lt;span style=&quot;border-color: var(--border-color);&quot;&gt;&lt;b&gt;emote&lt;/b&gt;&lt;br&gt;&lt;/span&gt;" style="rhombus;whiteSpace=wrap;html=1;" vertex="1" parent="1">
                    <mxGeometry x="590" y="595" width="210" height="80" as="geometry"/>
                </mxCell>
                <mxCell id="55" value="&amp;nbsp;motorFlags" style="text;html=1;strokeColor=none;fillColor=none;align=center;verticalAlign=middle;whiteSpace=wrap;rounded=0;spacingLeft=8;spacing=0;" vertex="1" parent="1">
                    <mxGeometry x="450" y="270" width="60" height="30" as="geometry"/>
                </mxCell>
                <mxCell id="68" style="edgeStyle=none;jumpStyle=arc;html=1;exitX=0;exitY=0;exitDx=0;exitDy=0;entryX=1;entryY=0.5;entryDx=0;entryDy=0;targetPerimeterSpacing=0;dashed=1;" edge="1" parent="1" source="64" target="66">
                    <mxGeometry relative="1" as="geometry"/>
                </mxCell>
                <mxCell id="69" value="update" style="edgeLabel;html=1;align=center;verticalAlign=middle;resizable=0;points=[];" vertex="1" connectable="0" parent="68">
                    <mxGeometry x="-0.456" y="3" relative="1" as="geometry">
                        <mxPoint x="-8" y="-6" as="offset"/>
                    </mxGeometry>
                </mxCell>
                <mxCell id="76" value="" style="edgeStyle=none;jumpStyle=arc;html=1;targetPerimeterSpacing=0;" edge="1" parent="1" source="64" target="29">
                    <mxGeometry relative="1" as="geometry">
                        <Array as="points"/>
                    </mxGeometry>
                </mxCell>
                <mxCell id="64" value="&lt;b&gt;Check switches&lt;br&gt;&lt;/b&gt;DesiredDirectionUpdate(),&lt;br&gt;EnableUpdate()" style="ellipse;whiteSpace=wrap;html=1;" vertex="1" parent="1">
                    <mxGeometry x="610" y="455" width="170" height="100" as="geometry"/>
                </mxCell>
                <mxCell id="66" value="&amp;nbsp;motorFlags" style="text;html=1;strokeColor=none;fillColor=none;align=center;verticalAlign=middle;whiteSpace=wrap;rounded=0;spacingLeft=8;spacing=8;spacingRight=8;" vertex="1" parent="1">
                    <mxGeometry x="500" y="415" width="80" height="30" as="geometry"/>
                </mxCell>
                <mxCell id="73" style="edgeStyle=none;jumpStyle=arc;html=1;entryX=0.312;entryY=0.867;entryDx=0;entryDy=0;dashed=1;targetPerimeterSpacing=0;exitX=0.75;exitY=0;exitDx=0;exitDy=0;exitPerimeter=0;entryPerimeter=0;" edge="1" parent="1" source="72" target="52">
                    <mxGeometry relative="1" as="geometry"/>
                </mxCell>
                <mxCell id="74" value="read" style="edgeLabel;html=1;align=center;verticalAlign=middle;resizable=0;points=[];" vertex="1" connectable="0" parent="73">
                    <mxGeometry x="-0.3663" y="-1" relative="1" as="geometry">
                        <mxPoint y="-4" as="offset"/>
                    </mxGeometry>
                </mxCell>
                <mxCell id="72" value="&amp;nbsp;motorFlags" style="text;html=1;strokeColor=none;fillColor=none;align=center;verticalAlign=middle;whiteSpace=wrap;rounded=0;spacingLeft=8;spacing=8;spacingRight=8;" vertex="1" parent="1">
                    <mxGeometry x="570" y="695" width="80" height="30" as="geometry"/>
                </mxCell>
                <mxCell id="79" value="&lt;span style=&quot;color: rgb(0, 0, 0); font-family: Helvetica; font-size: 12px; font-style: normal; font-variant-ligatures: normal; font-variant-caps: normal; font-weight: 400; letter-spacing: normal; orphans: 2; text-indent: 0px; text-transform: none; widows: 2; word-spacing: 0px; -webkit-text-stroke-width: 0px; background-color: rgb(251, 251, 251); text-decoration-thickness: initial; text-decoration-style: initial; text-decoration-color: initial; float: none; display: inline !important;&quot;&gt;&lt;sup&gt;2&lt;/sup&gt; this allows triggering the respective interrupt routines by writing to the PORTx registers&lt;/span&gt;" style="text;whiteSpace=wrap;html=1;align=center;" vertex="1" parent="1">
                    <mxGeometry x="450" y="365" width="270" height="40" as="geometry"/>
                </mxCell>
                <mxCell id="81" value="&lt;sup&gt;3&lt;/sup&gt; only if speed control method&lt;br style=&quot;border-color: var(--border-color);&quot;&gt;is closed loop" style="text;whiteSpace=wrap;html=1;align=center;" vertex="1" parent="1">
                    <mxGeometry x="370" y="535" width="170" height="40" as="geometry"/>
                </mxCell>
                <mxCell id="83" value="&lt;b&gt;Start / loop&lt;/b&gt;" style="ellipse;whiteSpace=wrap;html=1;" vertex="1" parent="1">
                    <mxGeometry x="880" y="330" width="170" height="100" as="geometry"/>
                </mxCell>
            </root>
        </mxGraphModel>
    </diagram>
</mxfile>